name C:\Users\u0101727\Documents\MyRepositories\upper-imu-dc\Results\main_tracking\Case_18\kinematics.mot
datacolumns 10
datarows 37
range 2.07000000 2.43000000
endheader 
time	clav_prot	clav_elev	scapula_abduction	scapula_elevation	scapula_upward_rot	scapula_winging	plane_elv	shoulder_elv	axial_rot	
          2.07000000	        -30.70553874	         11.95491238	         -0.47832543	          0.26082716	         54.94307776	         -7.70345658	         64.13154205	         77.52156983	        -18.17236548	
          2.08000000	        -30.89961609	         11.96127363	         -0.59114171	          0.23760878	         55.21181367	         -7.77989407	         64.00441990	         77.85023625	        -17.74738755	
          2.09000000	        -31.08914264	         11.95985415	         -0.69357977	          0.20986491	         55.47953501	         -7.85443719	         63.87713987	         78.17240128	        -17.33694217	
          2.10000000	        -31.27341425	         11.94982155	         -0.78447873	          0.17710540	         55.74583810	         -7.92663452	         63.74758627	         78.48947473	        -16.96174066	
          2.11000000	        -31.45220669	         11.93043643	         -0.86332083	          0.13885233	         56.01061069	         -7.99619386	         63.61446096	         78.80263855	        -16.63810433	
          2.12000000	        -31.62551366	         11.90071278	         -0.92985674	          0.09443960	         56.27378118	         -8.06285339	         63.47676004	         79.11303824	        -16.38067257	
          2.13000000	        -31.79342702	         11.85950984	         -0.98399623	          0.04308833	         56.53524126	         -8.12635085	         63.33360261	         79.42180200	        -16.20205537	
          2.14000000	        -31.95626982	         11.80612452	         -1.02613902	         -0.01570432	         56.79498837	         -8.18654698	         63.18461957	         79.72982409	        -16.10842337	
          2.15000000	        -32.11486157	         11.74108600	         -1.05773592	         -0.08165079	         57.05334888	         -8.24363369	         63.03063101	         80.03745363	        -16.09313206	
          2.16000000	        -32.27070496	         11.66674716	         -1.08170155	         -0.15328706	         57.31111189	         -8.29830485	         62.87413493	         80.34429397	        -16.13195263	
          2.17000000	        -32.42592984	         11.58736046	         -1.10236365	         -0.22791239	         57.56947555	         -8.35178498	         62.71921005	         80.64925267	        -16.18308792	
          2.18000000	        -32.58293583	         11.50850029	         -1.12481751	         -0.30194586	         57.82979384	         -8.40565984	         62.57067370	         80.95086592	        -16.19343098	
          2.19000000	        -32.74382434	         11.43595939	         -1.15383385	         -0.37162379	         58.09320922	         -8.46153761	         62.43269151	         81.24778806	        -16.10980230	
          2.20000000	        -32.90986349	         11.37453481	         -1.19275537	         -0.43377976	         58.36034675	         -8.52067242	         62.30739444	         81.53923574	        -15.89122448	
          2.21000000	        -33.08124350	         11.32717199	         -1.24286035	         -0.48641064	         58.63122962	         -8.58371404	         62.19411449	         81.82520434	        -15.51770562	
          2.22000000	        -33.25720184	         11.29467586	         -1.30337669	         -0.52889020	         58.90543440	         -8.65066206	         62.08948910	         82.10642442	        -14.99316247	
          2.23000000	        -33.43639185	         11.27589920	         -1.37197801	         -0.56187688	         59.18237115	         -8.72098618	         61.98822942	         82.38415771	        -14.34303517	
          2.24000000	        -33.61729753	         11.26821423	         -1.44545859	         -0.58702898	         59.46155176	         -8.79382413	         61.88414022	         82.65995117	        -13.60872828	
          2.25000000	        -33.79854899	         11.26811223	         -1.52034926	         -0.60662099	         59.74276440	         -8.86818132	         61.77103465	         82.93541725	        -12.84103290	
          2.26000000	        -33.97907805	         11.27182360	         -1.59335738	         -0.62313084	         60.02612758	         -8.94308764	         61.64335313	         83.21206388	        -12.09395223	
          2.27000000	        -34.15812055	         11.27586357	         -1.66160958	         -0.63886475	         60.31202909	         -9.01769112	         61.49645702	         83.49117861	        -11.41958508	
          2.28000000	        -34.33511226	         11.27741789	         -1.72273188	         -0.65568304	         60.60097273	         -9.09128638	         61.32667516	         83.77376462	        -10.86421571	
          2.29000000	        -34.50953775	         11.27452241	         -1.77482662	         -0.67486402	         60.89336704	         -9.16329069	         61.13122344	         84.06052133	        -10.46549575	
          2.30000000	        -34.68078569	         11.26605028	         -1.81640955	         -0.69710148	         61.18929560	         -9.23319033	         60.90811006	         84.35186009	        -10.25046548	
          2.31000000	        -34.84805935	         11.25157667	         -1.84638071	         -0.72259221	         61.48831049	         -9.30048913	         60.65612693	         84.64793929	        -10.23403828	
          2.32000000	        -35.01039537	         11.23121671	         -1.86411711	         -0.75115293	         61.78929140	         -9.36469782	         60.37502000	         84.94869623	        -10.41754082	
          2.33000000	        -35.16683603	         11.20551676	         -1.86976122	         -0.78231498	         62.09040759	         -9.42539836	         60.06589451	         85.25385137	        -10.78711660	
          2.34000000	        -35.31676145	         11.17543653	         -1.86470747	         -0.81537056	         62.38920696	         -9.48239445	         59.73181547	         85.56287197	        -11.31228423	
          2.35000000	        -35.46031366	         11.14240405	         -1.85216352	         -0.84937556	         62.68283086	         -9.53591826	         59.37841601	         85.87490436	        -11.94552732	
          2.36000000	        -35.59875595	         11.10836421	         -1.83752087	         -0.88314833	         62.96831706	         -9.58681246	         59.01418274	         86.18871148	        -12.62419007	
          2.37000000	        -35.73455771	         11.07569409	         -1.82819204	         -0.91533248	         63.24291889	         -9.63657179	         58.65004313	         86.50266939	        -13.27583677	
          2.38000000	        -35.87103787	         11.04686916	         -1.83266019	         -0.94458947	         63.50435853	         -9.68714546	         58.29803523	         86.81486706	        -13.82734297	
          2.39000000	        -36.01159214	         11.02390038	         -1.85883003	         -0.96991076	         63.75097384	         -9.74050590	         57.96924402	         87.12330150	        -14.21627152	
          2.40000000	        -36.15879823	         11.00777667	         -1.91223800	         -0.99091571	         63.98179464	         -9.79814590	         57.67167331	         87.42608713	        -14.40126769	
          2.41000000	        -36.31379441	         10.99820827	         -1.99485196	         -1.00796721	         64.19660718	         -9.86072806	         57.40886285	         87.72159137	        -14.36797729	
          2.42000000	        -36.47614977	         10.99378227	         -2.10486014	         -1.02204791	         64.39601823	         -9.92801117	         57.17967233	         88.00847625	        -14.12899502	
          2.43000000	        -36.64417269	         10.99241639	         -2.23734626	         -1.03447116	         64.58148245	         -9.99902449	         56.97909634	         88.28568256	        -13.71884863	
